<svg xmlns="http://www.w3.org/2000/svg" viewBox="0 0 1500 1000" width="1500" height="1000">
<defs>
  <linearGradient id="sky" x1="0" y1="0" x2="0" y2="1">
    <stop offset="0" stop-color="#14183a"/>
    <stop offset="0.62" stop-color="#5b3b8c"/>
    <stop offset="1" stop-color="#f08a6c"/>
  </linearGradient>
  <radialGradient id="glow" cx="0.5" cy="0.5" r="0.5">
    <stop offset="0" stop-color="#ffd0a1" stop-opacity="0.85"/>
    <stop offset="0.35" stop-color="#ffd0a1" stop-opacity="0.25"/>
    <stop offset="1" stop-color="#ffd0a1" stop-opacity="0"/>
  </radialGradient>
  <radialGradient id="vig" cx="0.5" cy="0.45" r="0.75">
    <stop offset="0.55" stop-color="#000" stop-opacity="0"/>
    <stop offset="1" stop-color="#000" stop-opacity="0.45"/>
  </radialGradient>
  <linearGradient id="sea" x1="0" y1="0" x2="0" y2="1">
    <stop offset="0" stop-color="#3d2a66"/>
    <stop offset="1" stop-color="#140f2b"/>
  </linearGradient>
</defs>
<rect width="1500" height="1000" fill="url(#sky)"/>
<circle cx="994.1" cy="150.7" r="2" fill="#fff" opacity="0.6"/>
<circle cx="1257.8" cy="544.7" r="1.3" fill="#fff" opacity="0.7"/>
<circle cx="293.9" cy="176" r="2.2" fill="#fff" opacity="0.6"/>
<circle cx="617.6" cy="371" r="2.2" fill="#fff" opacity="0.7"/>
<circle cx="130.4" cy="418.7" r="0.8" fill="#fff" opacity="0.7"/>
<circle cx="1060" cy="232.7" r="0.6" fill="#fff" opacity="0.6"/>
<circle cx="933.9" cy="560.5" r="1.6" fill="#fff" opacity="0.4"/>
<circle cx="953.5" cy="564.8" r="1.9" fill="#fff" opacity="0.7"/>
<circle cx="1342.5" cy="554.5" r="0.8" fill="#fff" opacity="0.5"/>
<circle cx="11.8" cy="271.2" r="0.5" fill="#fff" opacity="0.4"/>
<circle cx="506.3" cy="198.8" r="0.7" fill="#fff" opacity="0.7"/>
<circle cx="1271.1" cy="586.4" r="2.1" fill="#fff" opacity="0.8"/>
<circle cx="149.1" cy="301.1" r="0.8" fill="#fff" opacity="0.7"/>
<circle cx="1347.3" cy="152.4" r="0.9" fill="#fff" opacity="0.7"/>
<circle cx="946.9" cy="397.2" r="0.9" fill="#fff" opacity="0.3"/>
<circle cx="1425.1" cy="402.3" r="1.3" fill="#fff" opacity="0.6"/>
<circle cx="534.5" cy="377.2" r="1.3" fill="#fff" opacity="0.3"/>
<circle cx="611.6" cy="281.9" r="2.1" fill="#fff" opacity="0.4"/>
<circle cx="53.8" cy="227.5" r="1.8" fill="#fff" opacity="0.7"/>
<circle cx="489.9" cy="24.2" r="0.8" fill="#fff" opacity="0.7"/>
<circle cx="210.2" cy="572" r="2.2" fill="#fff" opacity="0.7"/>
<circle cx="1196.5" cy="379.9" r="0.4" fill="#fff" opacity="0.3"/>
<circle cx="1420.9" cy="410.6" r="1.9" fill="#fff" opacity="0.7"/>
<circle cx="1304.7" cy="352.4" r="1.5" fill="#fff" opacity="0.7"/>
<circle cx="458.5" cy="354.3" r="0.6" fill="#fff" opacity="0.4"/>
<circle cx="255.4" cy="238.9" r="0.8" fill="#fff" opacity="0.7"/>
<circle cx="1141.8" cy="209.1" r="1.6" fill="#fff" opacity="0.5"/>
<circle cx="129.3" cy="81.6" r="2.1" fill="#fff" opacity="0.7"/>
<circle cx="77.4" cy="262.8" r="1.1" fill="#fff" opacity="0.4"/>
<circle cx="1127.7" cy="563.9" r="0.5" fill="#fff" opacity="0.6"/>
<circle cx="516.4" cy="264.7" r="2.1" fill="#fff" opacity="0.5"/>
<circle cx="363.9" cy="106.8" r="1" fill="#fff" opacity="0.6"/>
<circle cx="1479.5" cy="458.3" r="2.2" fill="#fff" opacity="0.3"/>
<circle cx="820.7" cy="372.2" r="1.6" fill="#fff" opacity="0.8"/>
<circle cx="1310" cy="454.6" r="1.8" fill="#fff" opacity="0.6"/>
<circle cx="158.6" cy="84.7" r="1.7" fill="#fff" opacity="0.3"/>
<circle cx="1100.8" cy="493.1" r="1.6" fill="#fff" opacity="0.7"/>
<circle cx="98.9" cy="227.7" r="2" fill="#fff" opacity="0.6"/>
<circle cx="1416.2" cy="309.7" r="0.5" fill="#fff" opacity="0.8"/>
<circle cx="1141.4" cy="392.6" r="1.6" fill="#fff" opacity="0.7"/>
<circle cx="775.1" cy="347.8" r="1.6" fill="#fff" opacity="0.4"/>
<circle cx="600.1" cy="368" r="1.8" fill="#fff" opacity="0.5"/>
<circle cx="1469.7" cy="376.2" r="1.4" fill="#fff" opacity="0.4"/>
<circle cx="509.3" cy="190.2" r="0.5" fill="#fff" opacity="0.8"/>
<circle cx="1016.6" cy="476.1" r="2" fill="#fff" opacity="0.7"/>
<circle cx="1413.4" cy="481.4" r="1.8" fill="#fff" opacity="0.3"/>
<circle cx="1315.1" cy="564.9" r="0.8" fill="#fff" opacity="0.7"/>
<circle cx="158.1" cy="289.4" r="2.2" fill="#fff" opacity="0.8"/>
<circle cx="184.7" cy="408.4" r="0.7" fill="#fff" opacity="0.8"/>
<circle cx="437.9" cy="43.7" r="0.5" fill="#fff" opacity="0.4"/>
<circle cx="1336.1" cy="46.1" r="0.4" fill="#fff" opacity="0.3"/>
<circle cx="336.3" cy="493.7" r="0.8" fill="#fff" opacity="0.8"/>
<circle cx="909.9" cy="45.5" r="0.7" fill="#fff" opacity="0.6"/>
<circle cx="1174.9" cy="88.7" r="2" fill="#fff" opacity="0.8"/>
<circle cx="60.9" cy="279.7" r="1.2" fill="#fff" opacity="0.8"/>
<circle cx="1067.6" cy="261.5" r="0.4" fill="#fff" opacity="0.4"/>
<circle cx="1491.4" cy="515.2" r="1.2" fill="#fff" opacity="0.7"/>
<circle cx="275.4" cy="531.3" r="1.4" fill="#fff" opacity="0.7"/>
<circle cx="239.9" cy="531.5" r="1.6" fill="#fff" opacity="0.3"/>
<circle cx="342.1" cy="125.8" r="2.2" fill="#fff" opacity="0.8"/>
<circle cx="67.4" cy="402.8" r="2" fill="#fff" opacity="0.4"/>
<circle cx="206.8" cy="457.5" r="1.6" fill="#fff" opacity="0.3"/>
<circle cx="1088.8" cy="416.6" r="1.6" fill="#fff" opacity="0.3"/>
<circle cx="324.2" cy="28.2" r="1.9" fill="#fff" opacity="0.4"/>
<circle cx="1133.5" cy="10.6" r="1.1" fill="#fff" opacity="0.4"/>
<circle cx="586.8" cy="3.8" r="2.1" fill="#fff" opacity="0.4"/>
<circle cx="912.3" cy="401" r="1.3" fill="#fff" opacity="0.7"/>
<circle cx="807.3" cy="404.7" r="2" fill="#fff" opacity="0.3"/>
<circle cx="1280.1" cy="596.6" r="2" fill="#fff" opacity="0.5"/>
<circle cx="1206.9" cy="148.5" r="1.5" fill="#fff" opacity="0.4"/>
<circle cx="1496.7" cy="231.6" r="0.5" fill="#fff" opacity="0.7"/>
<circle cx="418.5" cy="112.1" r="1.3" fill="#fff" opacity="0.4"/>
<circle cx="824.6" cy="204.2" r="1.1" fill="#fff" opacity="0.7"/>
<circle cx="1123.9" cy="152.5" r="1.4" fill="#fff" opacity="0.6"/>
<circle cx="427.3" cy="51.1" r="2" fill="#fff" opacity="0.5"/>
<circle cx="1201.2" cy="595" r="2" fill="#fff" opacity="0.3"/>
<circle cx="289.1" cy="145.7" r="1.4" fill="#fff" opacity="0.7"/>
<circle cx="572.2" cy="570" r="1.1" fill="#fff" opacity="0.5"/>
<circle cx="947.5" cy="429.3" r="1.2" fill="#fff" opacity="0.6"/>
<circle cx="85.7" cy="125.2" r="1.4" fill="#fff" opacity="0.7"/>
<circle cx="1195" cy="535.9" r="1" fill="#fff" opacity="0.3"/>
<circle cx="1033.2" cy="323.6" r="1.5" fill="#fff" opacity="0.3"/>
<circle cx="767.6" cy="404.3" r="1.6" fill="#fff" opacity="0.6"/>
<circle cx="716.2" cy="426.2" r="1.3" fill="#fff" opacity="0.8"/>
<circle cx="1185.8" cy="84.8" r="2" fill="#fff" opacity="0.7"/>
<circle cx="368.7" cy="194.1" r="0.7" fill="#fff" opacity="0.6"/>
<circle cx="308.8" cy="65.3" r="1.4" fill="#fff" opacity="0.3"/>
<circle cx="456.9" cy="270.3" r="1.6" fill="#fff" opacity="0.6"/>
<circle cx="574.4" cy="261.7" r="1.4" fill="#fff" opacity="0.3"/>
<circle cx="283.3" cy="186.1" r="1.3" fill="#fff" opacity="0.7"/>
<circle cx="659.6" cy="399.7" r="507.3" fill="url(#glow)"/>
<circle cx="659.6" cy="399.7" r="101.5" fill="#ffd0a1" opacity="0.95"/>
<path d="M0 1000 L0 620 L0 580.2 L31.3 581.7 L62.5 578.3 L93.8 575.5 L125 574.4 L156.3 571.1 L187.5 566.9 L218.8 565.6 L250 567.7 L281.3 573.7 L312.5 582 L343.8 594.2 L375 603.8 L406.3 623.1 L437.5 638.8 L468.8 652.4 L500 668 L531.3 683.4 L562.5 689.8 L593.8 694.2 L625 692.6 L656.3 691 L687.5 686.9 L718.8 679.3 L750 668.2 L781.3 660.3 L812.5 646.9 L843.8 639.9 L875 635.5 L906.3 630 L937.5 628.1 L968.8 624.1 L1000 625 L1031.3 622 L1062.5 618.2 L1093.8 614.7 L1125 605.2 L1156.3 595.8 L1187.5 585.7 L1218.8 574.5 L1250 563.7 L1281.3 556.5 L1312.5 547.6 L1343.8 542.4 L1375 540.3 L1406.3 543.9 L1437.5 555.3 L1468.8 565.6 L1500 578.8 L1500 1000 Z" fill="#3d2a66"/>
<path d="M0 1000 L0 740 L0 713.3 L31.3 711.5 L62.5 709.5 L93.8 709 L125 704.6 L156.3 701.3 L187.5 693.5 L218.8 692.6 L250 688.9 L281.3 696.7 L312.5 703.4 L343.8 716.3 L375 733.8 L406.3 751.5 L437.5 769.7 L468.8 784.6 L500 795.5 L531.3 799.7 L562.5 799.4 L593.8 795.9 L625 785.1 L656.3 777.8 L687.5 768.9 L718.8 763.2 L750 756.8 L781.3 752.7 L812.5 752.4 L843.8 748.7 L875 747.9 L906.3 740.1 L937.5 731.7 L968.8 721.2 L1000 707.5 L1031.3 694.8 L1062.5 684.3 L1093.8 677.9 L1125 674.6 L1156.3 675.4 L1187.5 683.9 L1218.8 697.3 L1250 712 L1281.3 730 L1312.5 745.3 L1343.8 759.2 L1375 765.9 L1406.3 773.9 L1437.5 774.2 L1468.8 774.9 L1500 771.8 L1500 1000 Z" fill="#271c47"/>
<path d="M0 1000 L0 860 L0 896.3 L31.3 889 L62.5 883.7 L93.8 881 L125 876.1 L156.3 871.6 L187.5 866.6 L218.8 863.6 L250 862 L281.3 859.4 L312.5 858.3 L343.8 855.7 L375 857.5 L406.3 854.8 L437.5 852.8 L468.8 851.5 L500 849.4 L531.3 849.6 L562.5 846.9 L593.8 840.3 L625 837.8 L656.3 834.8 L687.5 830 L718.8 825.4 L750 821.4 L781.3 815.8 L812.5 814.3 L843.8 810.5 L875 809 L906.3 811.3 L937.5 812.7 L968.8 815.7 L1000 820.4 L1031.3 825.7 L1062.5 832 L1093.8 837.1 L1125 846 L1156.3 852.5 L1187.5 860.4 L1218.8 869.4 L1250 877.2 L1281.3 881.5 L1312.5 886.9 L1343.8 889.8 L1375 894.2 L1406.3 897.1 L1437.5 894.7 L1468.8 895.2 L1500 894.4 L1500 1000 Z" fill="#140f2b"/>
<rect width="1500" height="1000" fill="url(#vig)"/>
<text x="75" y="950" font-family="ui-monospace, Menlo, monospace" font-size="24" letter-spacing="4" fill="#fff" opacity="0.55">PLACEHOLDER · 2018</text>
</svg>
