<svg xmlns="http://www.w3.org/2000/svg" viewBox="0 0 1500 1000" width="1500" height="1000">
<defs>
  <linearGradient id="sky" x1="0" y1="0" x2="0" y2="1">
    <stop offset="0" stop-color="#14183a"/>
    <stop offset="0.62" stop-color="#5b3b8c"/>
    <stop offset="1" stop-color="#f08a6c"/>
  </linearGradient>
  <radialGradient id="glow" cx="0.5" cy="0.5" r="0.5">
    <stop offset="0" stop-color="#ffd0a1" stop-opacity="0.85"/>
    <stop offset="0.35" stop-color="#ffd0a1" stop-opacity="0.25"/>
    <stop offset="1" stop-color="#ffd0a1" stop-opacity="0"/>
  </radialGradient>
  <radialGradient id="vig" cx="0.5" cy="0.45" r="0.75">
    <stop offset="0.55" stop-color="#000" stop-opacity="0"/>
    <stop offset="1" stop-color="#000" stop-opacity="0.45"/>
  </radialGradient>
  <linearGradient id="sea" x1="0" y1="0" x2="0" y2="1">
    <stop offset="0" stop-color="#3d2a66"/>
    <stop offset="1" stop-color="#140f2b"/>
  </linearGradient>
</defs>
<rect width="1500" height="1000" fill="url(#sky)"/>
<circle cx="689.2" cy="4.2" r="0.4" fill="#fff" opacity="0.4"/>
<circle cx="638.4" cy="574.9" r="1.6" fill="#fff" opacity="0.7"/>
<circle cx="354.9" cy="53.6" r="1.7" fill="#fff" opacity="0.6"/>
<circle cx="1150" cy="185.6" r="0.6" fill="#fff" opacity="0.7"/>
<circle cx="1229.4" cy="453" r="1" fill="#fff" opacity="0.6"/>
<circle cx="1490.3" cy="598.6" r="1.3" fill="#fff" opacity="0.8"/>
<circle cx="991.9" cy="230" r="1.8" fill="#fff" opacity="0.7"/>
<circle cx="29.7" cy="205.1" r="1.1" fill="#fff" opacity="0.4"/>
<circle cx="819.8" cy="209.3" r="0.8" fill="#fff" opacity="0.6"/>
<circle cx="743.8" cy="71.3" r="2" fill="#fff" opacity="0.7"/>
<circle cx="998.5" cy="367.6" r="0.7" fill="#fff" opacity="0.7"/>
<circle cx="802.5" cy="208.2" r="1.4" fill="#fff" opacity="0.4"/>
<circle cx="157.5" cy="245.5" r="1.6" fill="#fff" opacity="0.4"/>
<circle cx="216.9" cy="162.4" r="1.4" fill="#fff" opacity="0.5"/>
<circle cx="1077.8" cy="336" r="0.5" fill="#fff" opacity="0.6"/>
<circle cx="1002.9" cy="70.6" r="1.8" fill="#fff" opacity="0.5"/>
<circle cx="585.4" cy="583.3" r="1.3" fill="#fff" opacity="0.6"/>
<circle cx="171.8" cy="308.7" r="2" fill="#fff" opacity="0.3"/>
<circle cx="1373" cy="128.7" r="0.4" fill="#fff" opacity="0.4"/>
<circle cx="58.9" cy="0.8" r="0.6" fill="#fff" opacity="0.4"/>
<circle cx="349.6" cy="535.8" r="1.5" fill="#fff" opacity="0.5"/>
<circle cx="928.3" cy="62.5" r="1.6" fill="#fff" opacity="0.6"/>
<circle cx="1137.4" cy="357.7" r="0.7" fill="#fff" opacity="0.5"/>
<circle cx="1294.4" cy="36.4" r="1.4" fill="#fff" opacity="0.3"/>
<circle cx="1365.5" cy="86.7" r="1.8" fill="#fff" opacity="0.4"/>
<circle cx="298.7" cy="495.3" r="1.8" fill="#fff" opacity="0.8"/>
<circle cx="381.3" cy="411.6" r="0.5" fill="#fff" opacity="0.6"/>
<circle cx="1049.8" cy="192" r="1" fill="#fff" opacity="0.6"/>
<circle cx="1025.2" cy="376" r="1.4" fill="#fff" opacity="0.8"/>
<circle cx="87.3" cy="294" r="1.8" fill="#fff" opacity="0.6"/>
<circle cx="1068.4" cy="207.9" r="0.6" fill="#fff" opacity="0.3"/>
<circle cx="722.3" cy="356.1" r="2.2" fill="#fff" opacity="0.7"/>
<circle cx="136.4" cy="231.8" r="0.7" fill="#fff" opacity="0.5"/>
<circle cx="1268" cy="372.3" r="1.2" fill="#fff" opacity="0.8"/>
<circle cx="137.2" cy="393.7" r="1.2" fill="#fff" opacity="0.4"/>
<circle cx="653.1" cy="196.2" r="0.8" fill="#fff" opacity="0.4"/>
<circle cx="152.5" cy="77.1" r="1.1" fill="#fff" opacity="0.8"/>
<circle cx="867.8" cy="137.4" r="1.6" fill="#fff" opacity="0.8"/>
<circle cx="123.2" cy="3.1" r="1.9" fill="#fff" opacity="0.4"/>
<circle cx="61.6" cy="482.6" r="1.7" fill="#fff" opacity="0.6"/>
<circle cx="1242.4" cy="266.4" r="0.9" fill="#fff" opacity="0.5"/>
<circle cx="695.9" cy="319.2" r="2.1" fill="#fff" opacity="0.8"/>
<circle cx="571" cy="63.4" r="2.2" fill="#fff" opacity="0.8"/>
<circle cx="395.2" cy="412" r="1.2" fill="#fff" opacity="0.8"/>
<circle cx="1471.4" cy="245.4" r="0.9" fill="#fff" opacity="0.5"/>
<circle cx="872.4" cy="371.6" r="1.1" fill="#fff" opacity="0.3"/>
<circle cx="1172.9" cy="239.6" r="0.6" fill="#fff" opacity="0.6"/>
<circle cx="765.7" cy="299.5" r="1.7" fill="#fff" opacity="0.3"/>
<circle cx="118.8" cy="384.1" r="1" fill="#fff" opacity="0.7"/>
<circle cx="243.8" cy="386.6" r="1.9" fill="#fff" opacity="0.8"/>
<circle cx="746.2" cy="470.6" r="1.1" fill="#fff" opacity="0.3"/>
<circle cx="813.6" cy="61.8" r="1.7" fill="#fff" opacity="0.4"/>
<circle cx="1079.4" cy="13.4" r="1.9" fill="#fff" opacity="0.8"/>
<circle cx="979.2" cy="244.4" r="1.7" fill="#fff" opacity="0.6"/>
<circle cx="341.6" cy="484.5" r="1.1" fill="#fff" opacity="0.6"/>
<circle cx="468.1" cy="169.4" r="1.2" fill="#fff" opacity="0.7"/>
<circle cx="104.7" cy="262" r="0.8" fill="#fff" opacity="0.3"/>
<circle cx="715.5" cy="46.4" r="0.5" fill="#fff" opacity="0.5"/>
<circle cx="244.2" cy="518.6" r="1.4" fill="#fff" opacity="0.5"/>
<circle cx="1356.8" cy="391.6" r="0.7" fill="#fff" opacity="0.3"/>
<circle cx="109.7" cy="413" r="2.2" fill="#fff" opacity="0.5"/>
<circle cx="699.7" cy="227.9" r="0.4" fill="#fff" opacity="0.5"/>
<circle cx="437.4" cy="8.1" r="1.3" fill="#fff" opacity="0.4"/>
<circle cx="3.5" cy="333.6" r="0.5" fill="#fff" opacity="0.5"/>
<circle cx="1315" cy="439.9" r="1.5" fill="#fff" opacity="0.6"/>
<circle cx="501.9" cy="28.2" r="0.6" fill="#fff" opacity="0.6"/>
<circle cx="512.7" cy="436.6" r="2.1" fill="#fff" opacity="0.4"/>
<circle cx="1032" cy="373.3" r="2.2" fill="#fff" opacity="0.4"/>
<circle cx="846.1" cy="441.8" r="2.1" fill="#fff" opacity="0.8"/>
<circle cx="1176.8" cy="122.5" r="1.3" fill="#fff" opacity="0.5"/>
<circle cx="132.6" cy="311.7" r="0.7" fill="#fff" opacity="0.6"/>
<circle cx="772.1" cy="547.1" r="1.1" fill="#fff" opacity="0.8"/>
<circle cx="195.9" cy="465.5" r="1.8" fill="#fff" opacity="0.6"/>
<circle cx="1049.1" cy="421.4" r="1.5" fill="#fff" opacity="0.5"/>
<circle cx="1484.4" cy="69.4" r="1.4" fill="#fff" opacity="0.7"/>
<circle cx="339.5" cy="551.3" r="1.2" fill="#fff" opacity="0.3"/>
<circle cx="632.6" cy="334.8" r="2.1" fill="#fff" opacity="0.7"/>
<circle cx="1236.2" cy="474.9" r="1.9" fill="#fff" opacity="0.7"/>
<circle cx="191.2" cy="82.7" r="0.7" fill="#fff" opacity="0.6"/>
<circle cx="978.2" cy="315.6" r="1.7" fill="#fff" opacity="0.5"/>
<circle cx="820.5" cy="292" r="1.9" fill="#fff" opacity="0.7"/>
<circle cx="407.1" cy="455.5" r="0.7" fill="#fff" opacity="0.5"/>
<circle cx="1158.2" cy="323.9" r="1.6" fill="#fff" opacity="0.3"/>
<circle cx="757.1" cy="58.9" r="2.1" fill="#fff" opacity="0.4"/>
<circle cx="291" cy="116.3" r="2.2" fill="#fff" opacity="0.7"/>
<circle cx="1204.7" cy="467.7" r="0.8" fill="#fff" opacity="0.3"/>
<circle cx="992" cy="278.4" r="2.2" fill="#fff" opacity="0.4"/>
<circle cx="1060.6" cy="425.8" r="1.6" fill="#fff" opacity="0.5"/>
<circle cx="328" cy="73" r="1.2" fill="#fff" opacity="0.6"/>
<circle cx="1322.8" cy="541.7" r="1.4" fill="#fff" opacity="0.4"/>
<circle cx="644" cy="429.1" r="552.7" fill="url(#glow)"/>
<circle cx="644" cy="429.1" r="110.5" fill="#ffd0a1" opacity="0.95"/>
<path d="M0 1000 L0 620 L0 599.4 L31.3 596.2 L62.5 594.3 L93.8 595.7 L125 595 L156.3 591.1 L187.5 590.4 L218.8 584.8 L250 582.7 L281.3 575.9 L312.5 565.4 L343.8 561.5 L375 558 L406.3 556.6 L437.5 555.4 L468.8 561.7 L500 569 L531.3 580 L562.5 594.6 L593.8 610 L625 628.7 L656.3 640.5 L687.5 656.1 L718.8 670.5 L750 680.8 L781.3 683.3 L812.5 685.4 L843.8 683.8 L875 680.5 L906.3 675.5 L937.5 666.6 L968.8 663.2 L1000 656 L1031.3 650.9 L1062.5 644.9 L1093.8 647.2 L1125 642.7 L1156.3 643.5 L1187.5 640.5 L1218.8 639.7 L1250 632.1 L1281.3 626.5 L1312.5 616.1 L1343.8 607.2 L1375 592.4 L1406.3 583 L1437.5 566.9 L1468.8 554.8 L1500 545.7 L1500 1000 Z" fill="#3d2a66"/>
<path d="M0 1000 L0 740 L0 709.3 L31.3 710.4 L62.5 713.3 L93.8 720.4 L125 733.4 L156.3 750.1 L187.5 766.4 L218.8 782.3 L250 794.8 L281.3 801.9 L312.5 807.3 L343.8 805.5 L375 797.6 L406.3 785.2 L437.5 771.4 L468.8 757.6 L500 748.1 L531.3 738.5 L562.5 731.3 L593.8 731.2 L625 726.2 L656.3 727.7 L687.5 724.2 L718.8 716.9 L750 710.6 L781.3 703.5 L812.5 693.9 L843.8 687.9 L875 682.7 L906.3 683 L937.5 687.1 L968.8 694.2 L1000 711.7 L1031.3 726.1 L1062.5 746.3 L1093.8 761.1 L1125 774 L1156.3 784.9 L1187.5 788.1 L1218.8 789.7 L1250 787.3 L1281.3 780 L1312.5 776.8 L1343.8 771.2 L1375 769.7 L1406.3 768.2 L1437.5 768.9 L1468.8 766.5 L1500 766.9 L1500 1000 Z" fill="#271c47"/>
<path d="M0 1000 L0 860 L0 888.7 L31.3 883.9 L62.5 879.8 L93.8 873.8 L125 870.5 L156.3 865.4 L187.5 863.6 L218.8 858.4 L250 859.2 L281.3 857.6 L312.5 854.9 L343.8 854.4 L375 854 L406.3 852.1 L437.5 851.2 L468.8 851.3 L500 849 L531.3 846.1 L562.5 840.4 L593.8 837.5 L625 833.6 L656.3 830.3 L687.5 823.2 L718.8 821.4 L750 816 L781.3 812.1 L812.5 811.2 L843.8 812 L875 810.7 L906.3 811.3 L937.5 815.5 L968.8 818.3 L1000 824.8 L1031.3 832.8 L1062.5 837.5 L1093.8 845.8 L1125 855.7 L1156.3 862.8 L1187.5 869.3 L1218.8 875.2 L1250 882 L1281.3 888.4 L1312.5 890.9 L1343.8 895.1 L1375 895 L1406.3 898.4 L1437.5 897.7 L1468.8 897.7 L1500 893.3 L1500 1000 Z" fill="#140f2b"/>
<rect width="1500" height="1000" fill="url(#vig)"/>
<text x="75" y="950" font-family="ui-monospace, Menlo, monospace" font-size="24" letter-spacing="4" fill="#fff" opacity="0.55">PLACEHOLDER · 2024</text>
</svg>
