<svg xmlns="http://www.w3.org/2000/svg" viewBox="0 0 1300 1300" width="1300" height="1300">
<defs>
  <linearGradient id="sky" x1="0" y1="0" x2="0" y2="1">
    <stop offset="0" stop-color="#5a4632"/>
    <stop offset="0.62" stop-color="#b99c74"/>
    <stop offset="1" stop-color="#efe0c2"/>
  </linearGradient>
  <radialGradient id="glow" cx="0.5" cy="0.5" r="0.5">
    <stop offset="0" stop-color="#fff6e2" stop-opacity="0.85"/>
    <stop offset="0.35" stop-color="#fff6e2" stop-opacity="0.25"/>
    <stop offset="1" stop-color="#fff6e2" stop-opacity="0"/>
  </radialGradient>
  <radialGradient id="vig" cx="0.5" cy="0.45" r="0.75">
    <stop offset="0.55" stop-color="#000" stop-opacity="0"/>
    <stop offset="1" stop-color="#000" stop-opacity="0.45"/>
  </radialGradient>
  <linearGradient id="sea" x1="0" y1="0" x2="0" y2="1">
    <stop offset="0" stop-color="#8a6f50"/>
    <stop offset="1" stop-color="#45331f"/>
  </linearGradient>
</defs>
<rect width="1300" height="1300" fill="url(#sky)"/>
<circle cx="864.6" cy="557.8" r="479" fill="url(#glow)"/>
<circle cx="864.6" cy="557.8" r="95.8" fill="#fff6e2" opacity="0.95"/>
<path d="M0 1300 L0 806 L0 904.3 L27.1 899.1 L54.2 892 L81.3 877.5 L108.3 867.3 L135.4 853.9 L162.5 840.5 L189.6 830 L216.7 821.4 L243.8 819.6 L270.8 815.4 L297.9 810.3 L325 809.9 L352.1 809 L379.2 800.1 L406.3 792.9 L433.3 784.7 L460.4 774.4 L487.5 756.6 L514.6 745.1 L541.7 732.9 L568.8 720.7 L595.8 707.1 L622.9 707.6 L650 703.7 L677.1 708.8 L704.2 721.5 L731.3 734.7 L758.3 755.7 L785.4 774.4 L812.5 795.5 L839.6 814.6 L866.7 834.2 L893.8 846.5 L920.8 856.1 L947.9 867.7 L975 868.6 L1002.1 866.3 L1029.2 863.9 L1056.3 861.8 L1083.3 860.9 L1110.4 859.3 L1137.5 855.7 L1164.6 856 L1191.7 861 L1218.8 866 L1245.8 867.3 L1272.9 868.3 L1300 867.7 L1300 1300 Z" fill="#8a6f50"/>
<path d="M0 1300 L0 962 L0 974.2 L27.1 963.5 L54.2 952.4 L81.3 949.3 L108.3 943 L135.4 942.1 L162.5 941.3 L189.6 934.8 L216.7 929.5 L243.8 916.3 L270.8 907.6 L297.9 894 L325 886.9 L352.1 885.4 L379.2 887.5 L406.3 901.4 L433.3 915.7 L460.4 941.2 L487.5 960.6 L514.6 985.4 L541.7 1004.8 L568.8 1016.3 L595.8 1027.1 L622.9 1025.8 L650 1026.9 L677.1 1020.6 L704.2 1009.8 L731.3 1003.1 L758.3 1001.1 L785.4 998.5 L812.5 998.4 L839.6 996.6 L866.7 995 L893.8 992 L920.8 981.5 L947.9 967.1 L975 948.6 L1002.1 930 L1029.2 909.3 L1056.3 893.7 L1083.3 878.7 L1110.4 872.2 L1137.5 874.1 L1164.6 886.5 L1191.7 898.4 L1218.8 918.5 L1245.8 937.5 L1272.9 953.7 L1300 965.7 L1300 1300 Z" fill="#6a5238"/>
<path d="M0 1300 L0 1118 L0 1145.1 L27.1 1153.6 L54.2 1161.9 L81.3 1169.5 L108.3 1171.1 L135.4 1174.2 L162.5 1175.6 L189.6 1176.3 L216.7 1176.4 L243.8 1172.8 L270.8 1170.1 L297.9 1164.9 L325 1162.6 L352.1 1156.3 L379.2 1151.2 L406.3 1149.5 L433.3 1145.3 L460.4 1141.9 L487.5 1139 L514.6 1136.4 L541.7 1135.3 L568.8 1134.8 L595.8 1135.7 L622.9 1131.6 L650 1133.5 L677.1 1132.5 L704.2 1127.8 L731.3 1125.2 L758.3 1118 L785.4 1116.2 L812.5 1108.6 L839.6 1101.6 L866.7 1091.5 L893.8 1083.7 L920.8 1077.6 L947.9 1070.7 L975 1061.2 L1002.1 1057.6 L1029.2 1052.1 L1056.3 1048.5 L1083.3 1049.6 L1110.4 1049.4 L1137.5 1052.1 L1164.6 1054.9 L1191.7 1063.1 L1218.8 1069.6 L1245.8 1075.4 L1272.9 1083.7 L1300 1092.4 L1300 1300 Z" fill="#45331f"/>
<circle cx="137.6" cy="858.8" r="37.5" fill="#fff6e2" opacity="0.1"/>
<circle cx="301.2" cy="847" r="46.6" fill="#fff6e2" opacity="0.1"/>
<circle cx="799.6" cy="828.8" r="104.2" fill="#fff6e2" opacity="0.1"/>
<circle cx="1072.1" cy="1159.5" r="55.5" fill="#fff6e2" opacity="0.2"/>
<circle cx="1217.4" cy="232.1" r="122.1" fill="#fff6e2" opacity="0.2"/>
<circle cx="58.9" cy="885.4" r="51.4" fill="#fff6e2" opacity="0.2"/>
<circle cx="786.5" cy="1293.1" r="68.4" fill="#fff6e2" opacity="0.1"/>
<circle cx="299.4" cy="491.3" r="28.5" fill="#fff6e2" opacity="0.2"/>
<circle cx="870" cy="921.2" r="81" fill="#fff6e2" opacity="0.1"/>
<circle cx="1027.3" cy="827.3" r="47.1" fill="#fff6e2" opacity="0.1"/>
<circle cx="222.3" cy="818.7" r="112.9" fill="#fff6e2" opacity="0.2"/>
<circle cx="214.4" cy="474" r="50.2" fill="#fff6e2" opacity="0.1"/>
<circle cx="977.1" cy="318.8" r="128" fill="#fff6e2" opacity="0.2"/>
<circle cx="455.5" cy="351.3" r="71" fill="#fff6e2" opacity="0.2"/>
<circle cx="471.2" cy="968.2" r="66.8" fill="#fff6e2" opacity="0.2"/>
<circle cx="783.9" cy="905.2" r="47.1" fill="#fff6e2" opacity="0.1"/>
<circle cx="331.2" cy="835.9" r="52.1" fill="#fff6e2" opacity="0.1"/>
<circle cx="1191.8" cy="119.4" r="33.7" fill="#fff6e2" opacity="0.2"/>
<rect width="1300" height="1300" fill="url(#vig)"/>
<text x="65" y="1235" font-family="ui-monospace, Menlo, monospace" font-size="31.2" letter-spacing="4" fill="#fff" opacity="0.6">ЗАГЛУШКА · ДЕТСКОЕ ФОТО</text>
</svg>
